<svg width="310" height="310" xmlns="http://www.w3.org/2000/svg" xml:space="preserve" version="1.1">

 <g>
  <title>Layer 1</title>
  <path fill="#ffffff" stroke="#ffffff" d="m81.703,165.106l33.981,0l0,139.894c0,2.762 2.238,5 5,5l57.616,0c2.762,0 5,-2.238 5,-5l0,-139.235l39.064,0c2.54,0 4.677,-1.906 4.967,-4.429l5.933,-51.502c0.163,-1.417 -0.286,-2.836 -1.234,-3.899c-0.949,-1.064 -2.307,-1.673 -3.732,-1.673l-44.996,0l0,-32.284c0,-9.732 5.24,-14.667 15.576,-14.667c1.473,0 29.42,0 29.42,0c2.762,0 5,-2.239 5,-5l0,-47.274c0,-2.762 -2.238,-5 -5,-5l-40.545,0c-0.286,-0.014 -0.921,-0.037 -1.857,-0.037c-7.035,0 -31.488,1.381 -50.804,19.151c-21.402,19.692 -18.427,43.27 -17.716,47.358l0,37.752l-35.673,0c-2.762,0 -5,2.238 -5,5l0,50.844c0,2.762 2.238,5.001 5,5.001z" id="XMLID_835_"/>
  <g id="svg_1"/>
  <g id="svg_2"/>
  <g id="svg_3"/>
  <g id="svg_4"/>
  <g id="svg_5"/>
  <g id="svg_6"/>
  <g id="svg_7"/>
  <g id="svg_8"/>
  <g id="svg_9"/>
  <g id="svg_10"/>
  <g id="svg_11"/>
  <g id="svg_12"/>
  <g id="svg_13"/>
  <g id="svg_14"/>
  <g id="svg_15"/>
 </g>
</svg>