<svg width="315" height="315" xmlns="http://www.w3.org/2000/svg" xml:space="preserve" version="1.1">

 <g>
  <title>Layer 1</title>
  <g id="XMLID_510_">
   <path fill="#ffffff" d="m307.5,136.892l-19.791,0l0,-19.792c0,-4.143 -3.357,-7.5 -7.5,-7.5l-26.717,0c-4.143,0 -7.5,3.357 -7.5,7.5l0,19.792l-19.791,0c-4.143,0 -7.5,3.357 -7.5,7.5l0,26.717c0,4.143 3.357,7.5 7.5,7.5l19.791,0l0,19.792c0,4.142 3.357,7.5 7.5,7.5l26.717,0c4.143,0 7.5,-3.358 7.5,-7.5l0,-19.792l19.791,0c4.143,0 7.5,-3.357 7.5,-7.5l0,-26.717c0,-4.143 -3.357,-7.5 -7.5,-7.5z" id="XMLID_511_"/>
   <path fill="#ffffff" d="m101.906,104.16c9.088,0 17.823,2.45 25.274,7.087l8.513,5.825c2.967,2.03 6.958,1.671 9.514,-0.861l24.828,-24.596c1.589,-1.574 2.392,-3.774 2.191,-6.001c-0.2,-2.227 -1.384,-4.248 -3.228,-5.513l-14.43,-9.896c-0.294,-0.201 -0.603,-0.382 -0.922,-0.539l-13.979,-6.902c-0.185,-0.092 -0.374,-0.176 -0.566,-0.252c-12.042,-4.754 -24.729,-7.165 -37.708,-7.165c-26.757,0 -51.996,10.27 -71.068,28.915c-19.367,18.934 -30.137,44.681 -30.323,72.499c-0.187,27.824 10.239,53.72 29.355,72.916c18.968,19.049 45.879,29.975 73.834,29.975c27.658,0 53.608,-10.739 71.195,-29.463c13.931,-14.831 22.48,-34.641 24.727,-57.288c0.021,-0.215 0.034,-0.43 0.036,-0.645l0.26,-20.345c0.006,-0.421 -0.024,-0.841 -0.09,-1.257l-1.09,-6.953c-0.571,-3.649 -3.716,-6.339 -7.409,-6.339l-86.672,0c-4.143,0 -7.5,3.358 -7.5,7.5l0,29.982c0,4.142 3.357,7.5 7.5,7.5l44.186,0c-2.025,4.439 -5.216,9.12 -9.251,13.482c-8.801,9.518 -21.926,14.977 -36.01,14.977c-14.383,0 -28.157,-5.636 -37.79,-15.462c-20.052,-20.448 -19.822,-56.077 0.489,-76.245c9.562,-9.491 22.733,-14.936 36.134,-14.936z" id="XMLID_512_"/>
  </g>
  <g id="svg_1"/>
  <g id="svg_2"/>
  <g id="svg_3"/>
  <g id="svg_4"/>
  <g id="svg_5"/>
  <g id="svg_6"/>
  <g id="svg_7"/>
  <g id="svg_8"/>
  <g id="svg_9"/>
  <g id="svg_10"/>
  <g id="svg_11"/>
  <g id="svg_12"/>
  <g id="svg_13"/>
  <g id="svg_14"/>
  <g id="svg_15"/>
 </g>
</svg>